<svg id="Capa_1" data-name="Capa 1" xmlns="http://www.w3.org/2000/svg" xmlns:xlink="http://www.w3.org/1999/xlink" viewBox="0 0 191.2052 389.0075"><defs><linearGradient id="Degradado_sin_nombre_5" x1="179.9878" y1="247.2105" x2="180.0037" y2="247.1953" gradientUnits="userSpaceOnUse"><stop offset="0" stop-color="#305392"/><stop offset="1" stop-color="#4b4b4b"/></linearGradient><linearGradient id="Degradado_sin_nombre_5-2" x1="179.608" y1="244.6989" x2="179.7276" y2="244.5841" xlink:href="#Degradado_sin_nombre_5"/><linearGradient id="Degradado_sin_nombre_5-3" x1="179.4996" y1="245.7727" x2="180.1671" y2="245.1318" xlink:href="#Degradado_sin_nombre_5"/><linearGradient id="Degradado_sin_nombre_5-4" x1="179.4785" y1="250.164" x2="181.4631" y2="248.2587" xlink:href="#Degradado_sin_nombre_5"/><linearGradient id="Degradado_sin_nombre_5-5" x1="179.7541" y1="246.883" x2="180.1863" y2="246.4681" xlink:href="#Degradado_sin_nombre_5"/><linearGradient id="Degradado_sin_nombre_5-6" x1="181.5646" y1="259.2592" x2="181.6191" y2="259.2068" xlink:href="#Degradado_sin_nombre_5"/><linearGradient id="Degradado_sin_nombre_5-7" x1="180.1512" y1="253.9427" x2="181.7582" y2="252.4" xlink:href="#Degradado_sin_nombre_5"/><linearGradient id="Degradado_sin_nombre_5-8" x1="181.4945" y1="259.0705" x2="181.6477" y2="258.9234" xlink:href="#Degradado_sin_nombre_5"/><linearGradient id="Degradado_sin_nombre_5-9" x1="179.4083" y1="244.2264" x2="179.8279" y2="243.8236" xlink:href="#Degradado_sin_nombre_5"/><linearGradient id="Degradado_sin_nombre_5-10" x1="180.5854" y1="257.63" x2="182.31" y2="255.9745" xlink:href="#Degradado_sin_nombre_5"/><linearGradient id="Degradado_sin_nombre_5-11" x1="178.5219" y1="236.134" x2="178.5381" y2="236.1184" xlink:href="#Degradado_sin_nombre_5"/><linearGradient id="Degradado_sin_nombre_5-12" x1="178.5077" y1="236.0864" x2="178.5412" y2="236.0542" xlink:href="#Degradado_sin_nombre_5"/><linearGradient id="Degradado_sin_nombre_5-13" x1="178.4781" y1="236.4447" x2="178.68" y2="236.2509" xlink:href="#Degradado_sin_nombre_5"/><linearGradient id="Degradado_sin_nombre_5-14" x1="179.1907" y1="243.1861" x2="179.7852" y2="242.6154" xlink:href="#Degradado_sin_nombre_5"/><linearGradient id="Degradado_sin_nombre_5-15" x1="-9.3251" y1="296.9185" x2="249.0978" y2="48.8326" xlink:href="#Degradado_sin_nombre_5"/><linearGradient id="Degradado_sin_nombre_5-16" x1="179.1604" y1="242.0677" x2="179.4974" y2="241.7441" xlink:href="#Degradado_sin_nombre_5"/><linearGradient id="Degradado_sin_nombre_5-17" x1="178.3843" y1="240.4633" x2="179.9544" y2="238.956" xlink:href="#Degradado_sin_nombre_5"/><linearGradient id="Degradado_sin_nombre_5-18" x1="178.6099" y1="237.9" x2="178.9447" y2="237.5786" xlink:href="#Degradado_sin_nombre_5"/><linearGradient id="Degradado_sin_nombre_5-19" x1="178.4917" y1="237.1408" x2="178.8654" y2="236.7821" xlink:href="#Degradado_sin_nombre_5"/></defs><path d="M179.9965,247.2217l-.0045-.0347Z" fill="url(#Degradado_sin_nombre_5)"/><path d="M179.6738,244.783l-.0346-.2614Z" fill="url(#Degradado_sin_nombre_5-2)"/><path d="M179.867,246.2423c-.065-.4911-.13-.9786-.1932-1.4593Q179.7662,245.48,179.867,246.2423Z" fill="url(#Degradado_sin_nombre_5-3)"/><path d="M180.5707,251.56c-.2089-1.5782-.4014-3.0327-.5742-4.3386C180.1909,248.6905,180.3862,250.1665,180.5707,251.56Z" fill="url(#Degradado_sin_nombre_5-4)"/><path d="M179.992,247.187l-.125-.9447Q179.9293,246.7132,179.992,247.187Z" fill="url(#Degradado_sin_nombre_5-5)"/><path d="M181.5946,259.2976l-.0158-.1193Z" fill="url(#Degradado_sin_nombre_5-6)"/><path d="M181.0356,255.0734c-.14-1.0555-.2976-2.2485-.4649-3.5131C180.7167,252.664,180.8709,253.8293,181.0356,255.0734Z" fill="url(#Degradado_sin_nombre_5-7)"/><path d="M181.5788,259.1783l-.0443-.3349Z" fill="url(#Degradado_sin_nombre_5-8)"/><path d="M179.6392,244.5216l-.1214-.9173C179.5573,243.902,179.5972,244.2037,179.6392,244.5216Z" fill="url(#Degradado_sin_nombre_5-9)"/><path d="M181.5345,258.8434q-.2628-1.9854-.4989-3.77C181.2665,256.8182,181.4464,258.1779,181.5345,258.8434Z" fill="url(#Degradado_sin_nombre_5-10)"/><path d="M178.5308,236.1454l-.0047-.0354Z" fill="url(#Degradado_sin_nombre_5-11)"/><path d="M178.5261,236.11c-.0124-.0939-.0134-.1016,0,0Z" fill="url(#Degradado_sin_nombre_5-12)"/><path d="M178.5892,236.5868l-.0584-.4414Z" fill="url(#Degradado_sin_nombre_5-13)"/><path d="M179.5178,243.6043q-.09-.684-.1719-1.2995C179.4017,242.7267,179.4592,243.1615,179.5178,243.6043Z" fill="url(#Degradado_sin_nombre_5-14)"/><path d="M181.5946,259.2976a8.909,8.909,0,0,0-.69-1.7323,13.2346,13.2346,0,0,0-4.04-4.9168c.0967-33.7989.3129-109.6425.3129-111.3133,0-2.1513.7171-31.5523,2.1513-34.2256s0-53.26,0-53.26C178.6112,48.1126,167.8548-2.0841,92.56.0672,15.0917,2.2805,10.7224,49.535,10.0935,54.5665c-.7171,5.7368,1.4342,45.8942,2.1513,47.3284s2.1513,20.0787,2.1513,20.0787l.6407,130.6954a13.3787,13.3787,0,0,0-5.3136,9.5992c-1.0949,13.136-.6645,70.6684,6.9876,91.8373,9.1271,25.25,56.1574,33.377,56.1574,33.377a13.4311,13.4311,0,0,0,1.4682.2907c4.9767.6961,32.9974,4.0351,61.6076-4.4179,0,0,32.488-7.7688,39.2889-26.8111.1118-.3131.2066-.6261.296-.9464C176.9419,350.5409,188.0908,308.3877,181.5946,259.2976Z" fill="url(#Degradado_sin_nombre_5-15)"/><path d="M179.3459,242.3048l-.0975-.7368C179.28,241.8039,179.3125,242.0519,179.3459,242.3048Z" fill="url(#Degradado_sin_nombre_5-16)"/><path d="M179.2484,241.568c-.1922-1.4524-.3418-2.5829-.4543-3.4324C178.9166,239.0616,179.0725,240.24,179.2484,241.568Z" fill="url(#Degradado_sin_nombre_5-17)"/><path d="M178.7941,238.1356c-.0353-.2667-.0674-.51-.0968-.7319C178.726,237.62,178.7581,237.863,178.7941,238.1356Z" fill="url(#Degradado_sin_nombre_5-18)"/><path d="M178.6973,237.4037c-.0446-.3376-.0806-.6091-.1081-.8169C178.6178,236.8025,178.6542,237.078,178.6973,237.4037Z" fill="url(#Degradado_sin_nombre_5-19)"/><path id="right-mirror" d="M168.075,136.3889a2.9841,2.9841,0,0,1,1.3805.9557c.6843.8477,1.8513,2.1979,2.3433,2.1979.7171,0,15.7761,3.5855,19.3616,14.3419,0,0,.7171,2.1513-3.5855,1.4342s-12.9077-2.1513-15.7761-7.8881a19.8441,19.8441,0,0,1-.7171-5.7367l-3.5855-2.1513-.7171-3.5855Z" fill="#9f9f9f"/><path id="left-mirror" d="M23.13,136.1261a2.9837,2.9837,0,0,0-1.38.9556c-.6842.8477-1.8513,2.1979-2.3433,2.1979-.7171,0-15.7761,3.5855-19.3616,14.3419,0,0-.7171,2.1513,3.5855,1.4342s12.9077-2.1513,15.7761-7.8881a19.8433,19.8433,0,0,0,.7171-5.7367L23.709,139.28l.7171-3.5855Z" fill="#9f9f9f"/><path id="parabrisas" d="M29.0966,128.786s5.5127-30.8417,65.8609-30.1213,65.9118,30.1213,65.9118,30.1213-9.1492,34.4207-17.0373,39.44c0,0-48.9281-20.4372-97.7872,0C46.0448,168.2263,28.738,146.3549,29.0966,128.786Z" fill="#1b1a1f"/><path id="left-window" d="M162.3292,134.31s5.8841,60.449,2.2986,76.2251-12.9077,58.802-19.3616,66.69l1.4342-93.94s.7171-8.6052,2.8684-12.9078S161.4648,146.2877,162.3292,134.31Z" fill="#1b1a1f"/><path id="right-window" d="M26.8166,134.31s-5.8841,60.449-2.2986,76.2251,12.9077,58.802,19.3616,66.69l-1.4342-93.94s-.7171-8.6052-2.8684-12.9078S27.6811,146.2877,26.8166,134.31Z" fill="#1b1a1f"/><path id="rear_window" data-name="rear window" d="M125.97,343.5156a13.4714,13.4714,0,0,1-11.414,10.3073A137.9718,137.9718,0,0,1,93.155,355.17c-6.6128-.2778-13.955-1.0152-19.2038-1.62a13.47,13.47,0,0,1-11.319-9.2974c-5.5636-17.5809-10.437-56.707-12.3873-73.8028a8.5432,8.5432,0,0,1,7.404-9.4459,311.7889,311.7889,0,0,1,37.6162-2.61s20.9187.49,33.7049,2.5748a8.5339,8.5339,0,0,1,7.0879,9.3086C134.3849,286.5469,130.1137,325.627,125.97,343.5156Z" fill="#1b1a1f"/><path id="right-light" d="M140.2466,14.7676s5.7367.7171,7.888,2.1513,22.23,10.7565,23.6642,21.5129l-7.171-3.5855S140.2466,20.5044,140.2466,14.7676Z" fill="#e5e5e5"/><path id="left-right" d="M49.1753,14.7676s-5.7368.7171-7.8881,2.1513S19.0572,27.6754,17.623,38.4318l7.171-3.5855S49.1753,20.5044,49.1753,14.7676Z" fill="#e5e5e5"/></svg>